<?xml version="1.0" encoding="utf-8"?>
<!-- Generator: Adobe Illustrator 19.0.0, SVG Export Plug-In . SVG Version: 6.00 Build 0)  -->
<svg version="1.1" id="Capa_1" xmlns="http://www.w3.org/2000/svg" xmlns:xlink="http://www.w3.org/1999/xlink" x="0px" y="0px"
	 viewBox="0 0 100 100" style="enable-background:new 0 0 100 100;" xml:space="preserve">
<style type="text/css">
	.st0{fill:#E8E8E8;}
</style>
<path id="XMLID_3_" class="st0" d="M14.2,83.5l2.3,2.3c0.7,0.7,1.8,0.7,2.5,0l66.8-66.8c0.7-0.7,0.7-1.8,0-2.5l-2.3-2.3
	c-0.7-0.7-1.8-0.7-2.5,0L14.2,81.1C13.6,81.7,13.6,82.8,14.2,83.5z"/>
<path id="XMLID_2_" class="st0" d="M83.5,85.8l2.3-2.3c0.7-0.7,0.7-1.8,0-2.5L18.9,14.2c-0.7-0.7-1.8-0.7-2.5,0l-2.3,2.3
	c-0.7,0.7-0.7,1.8,0,2.5l66.8,66.8C81.7,86.4,82.8,86.4,83.5,85.8z"/>
</svg>
