<?xml version="1.0" encoding="utf-8"?>
<!-- Generator: Adobe Illustrator 19.0.0, SVG Export Plug-In . SVG Version: 6.00 Build 0)  -->
<svg version="1.1" id="Capa_1" xmlns="http://www.w3.org/2000/svg" xmlns:xlink="http://www.w3.org/1999/xlink" x="0px" y="0px"
	 viewBox="0 0 100 72.1" style="enable-background:new 0 0 100 72.1;" xml:space="preserve">
<style type="text/css">
	.st0{fill:#607D8B;}
	.st1{fill:#FFFFFF;}
</style>
<path id="XMLID_11_" class="st0" d="M64.8,50.5H16.8C9.8,50.5,4.2,44.9,4.2,38v-0.9c0-6.9,5.6-12.5,12.5-12.5h48.1
	c6.9,0,12.5,5.6,12.5,12.5V38C77.4,44.9,71.7,50.5,64.8,50.5z"/>
<path id="XMLID_13_" class="st0" d="M89.5,50.5H60.6c-3.5,0-6.3-2.8-6.3-6.3v-0.4c0-3.5,2.8-6.3,6.3-6.3h28.9c3.5,0,6.3,2.8,6.3,6.3
	v0.4C95.8,47.7,93,50.5,89.5,50.5z"/>
<ellipse id="XMLID_15_" class="st0" cx="45.7" cy="24.5" rx="25.4" ry="20.5"/>
<circle id="XMLID_14_" class="st0" cx="72.2" cy="32.1" r="16.3"/>
<path id="XMLID_22_" class="st0" d="M34.9,59.9l8.9,8.6c0.4,0.4,1,0.4,1.4,0l8.9-8.6c0.7-0.6,0.2-1.7-0.7-1.7h-3.6V39.1H39.2v19.1
	h-3.6C34.7,58.2,34.2,59.3,34.9,59.9z"/>
<path id="XMLID_18_" class="st1" d="M64.4,35.5l-8.9-8.6c-0.4-0.4-1-0.4-1.4,0l-8.9,8.6c-0.7,0.6-0.2,1.7,0.7,1.7h3.6v19.1h10.5
	V37.2h3.6C64.6,37.2,65.1,36.1,64.4,35.5z"/>
</svg>
