<?xml version="1.0" encoding="utf-8"?>
<!-- Generator: Adobe Illustrator 19.0.0, SVG Export Plug-In . SVG Version: 6.00 Build 0)  -->
<svg version="1.1" id="Capa_1" xmlns="http://www.w3.org/2000/svg" xmlns:xlink="http://www.w3.org/1999/xlink" x="0px" y="0px"
	 viewBox="0 0 92.9 37.8" style="enable-background:new 0 0 92.9 37.8;" xml:space="preserve">
<style type="text/css">
	.st0{fill:none;stroke:#607D8B;stroke-linecap:round;stroke-miterlimit:10;}
	.st1{fill:#EFEFEF;stroke:#FAFAFA;stroke-width:0.5;stroke-miterlimit:10;}
	.st2{fill:none;stroke:#607D8B;stroke-width:0.3;stroke-linecap:round;stroke-miterlimit:10;}
	.st3{fill:#EFEFEF;stroke:#607D8B;stroke-width:0.5;stroke-miterlimit:10;}
	.st4{fill:#607D8B;}
	.st5{font-family:'MyriadPro-Bold';}
	.st6{font-size:15.0376px;}
</style>
<line id="XMLID_1_" class="st0" x1="32.1" y1="20" x2="53.3" y2="20"/>
<line id="XMLID_2_" class="st0" x1="47.7" y1="14.1" x2="53.6" y2="20"/>
<line id="XMLID_4_" class="st0" x1="53.6" y1="20" x2="47.7" y2="25.9"/>
<rect id="XMLID_5_" x="6.2" y="7.1" class="st1" width="23.5" height="25.7"/>
<line id="XMLID_6_" class="st2" x1="7.7" y1="9.8" x2="18" y2="9.8"/>
<line id="XMLID_8_" class="st2" x1="7.7" y1="10.9" x2="19.3" y2="10.9"/>
<line id="XMLID_9_" class="st2" x1="7.7" y1="12.1" x2="15.8" y2="12.1"/>
<line id="XMLID_82_" class="st2" x1="7.7" y1="13.2" x2="16.5" y2="13.2"/>
<line id="XMLID_83_" class="st2" x1="7.7" y1="14.7" x2="18" y2="14.7"/>
<line id="XMLID_84_" class="st2" x1="7.7" y1="15.7" x2="12.9" y2="15.7"/>
<path id="XMLID_81_" class="st2" d="M18.6,13.2"/>
<path id="XMLID_80_" class="st2" d="M8.3,13.2"/>
<line id="XMLID_12_" class="st2" x1="7.7" y1="17.1" x2="15.8" y2="17.1"/>
<line id="XMLID_13_" class="st2" x1="7.7" y1="18.3" x2="19.3" y2="18.3"/>
<path id="XMLID_7_" class="st3" d="M84.4,29.2H73.3V9.8h11.1c1.1,0,2,0.9,2,2v15.6C86.3,28.3,85.4,29.2,84.4,29.2z"/>
<polygon id="XMLID_11_" class="st1" points="74.5,33.4 56.2,29.3 56.2,9.7 74.5,5.5 "/>
<rect id="XMLID_19_" x="81" y="11.2" class="st4" width="4.2" height="2"/>
<rect id="XMLID_22_" x="81" y="14.7" class="st4" width="4.2" height="2"/>
<rect id="XMLID_20_" x="74.5" y="14.7" class="st4" width="4.2" height="2"/>
<rect id="XMLID_24_" x="81" y="18.5" class="st4" width="4.2" height="2"/>
<rect id="XMLID_23_" x="74.5" y="18.5" class="st4" width="4.2" height="2"/>
<rect id="XMLID_26_" x="81" y="22.2" class="st4" width="4.2" height="2"/>
<rect id="XMLID_25_" x="74.5" y="22.2" class="st4" width="4.2" height="2"/>
<rect id="XMLID_28_" x="81" y="25.9" class="st4" width="4.2" height="2"/>
<rect id="XMLID_27_" x="74.5" y="25.9" class="st4" width="4.2" height="2"/>
<text id="XMLID_18_" transform="matrix(0.9629 0 0 1.0418 60.7031 24.2565)" class="st4 st5 st6">X</text>
<rect id="XMLID_3_" x="6.1" y="5.5" class="st4" width="23.8" height="2.1"/>
<rect id="XMLID_21_" x="74.5" y="11.2" class="st4" width="4.2" height="2"/>
</svg>
