<?xml version="1.0" encoding="utf-8"?>
<!-- Generator: Adobe Illustrator 16.0.0, SVG Export Plug-In . SVG Version: 6.00 Build 0)  -->
<!DOCTYPE svg PUBLIC "-//W3C//DTD SVG 1.1//EN" "http://www.w3.org/Graphics/SVG/1.1/DTD/svg11.dtd">
<svg version="1.1" id="Layer_1" xmlns="http://www.w3.org/2000/svg" xmlns:xlink="http://www.w3.org/1999/xlink" x="0px" y="0px"
	 width="285.47px" height="419.658px" viewBox="0 0 285.47 419.658" enable-background="new 0 0 285.47 419.658"
	 xml:space="preserve">
<path fill="#FFFFFF" stroke="#607D8B" stroke-width="2" stroke-miterlimit="10" d="M276.922,401.346
	c0,5.864-4.909,10.619-10.965,10.619H18.452c-6.055,0-10.965-4.755-10.965-10.619V17.927c0-5.865,4.91-10.62,10.965-10.62h247.505
	c6.056,0,10.965,4.755,10.965,10.62V401.346z"/>
<path fill="#607D8B" stroke="#607D8B" stroke-width="2" stroke-miterlimit="10" d="M276.923,164.981c0,2.346-4.909,4.25-10.965,4.25
	H18.452c-6.055,0-10.965-1.903-10.965-4.25V11.557c0-2.347,4.91-4.25,10.965-4.25h247.506c6.056,0,10.965,1.903,10.965,4.25V164.981
	z"/>
<text transform="matrix(0.9137 0 0 1 62.3999 88.2686)"><tspan x="0" y="0" fill="#FFFFFF" font-family="'MyriadPro-Regular'" font-size="56">$200 </tspan><tspan x="126.78" y="0" fill="#FFFFFF" font-family="'MyriadPro-Regular'" font-size="15">al mes</tspan></text>
<text transform="matrix(0.9137 0 0 1 74.8193 120.5127)" fill="#FFFFFF" font-family="'MyriadPro-Regular'" font-size="15">Pesos mexicanos (MXN)</text>
<text transform="matrix(0.9137 0 0 1 52.0684 219.6582)" fill="#607D8B" font-family="'MyriadPro-Regular'" font-size="15">Acceso a todas las conversiones</text>
<text transform="matrix(0.9137 0 0 1 48.2847 273.5034)" fill="#607D8B" font-family="'MyriadPro-Regular'" font-size="15">Sin compromiso de permanencia</text>
<text transform="matrix(0.9137 0 0 1 83.6421 300.854)" fill="#607D8B" font-family="'MyriadPro-Regular'" font-size="15">Mes a mes a tu ritmo</text>
<text transform="matrix(0.9137 0 0 1 100.2505 241.0259)" fill="#607D8B" font-family="'MyriadPro-Regular'" font-size="15">de los archivos</text>
</svg>
