<?xml version="1.0" encoding="utf-8"?>
<!-- Generator: Adobe Illustrator 19.0.0, SVG Export Plug-In . SVG Version: 6.00 Build 0)  -->
<svg version="1.1" id="Capa_1" xmlns="http://www.w3.org/2000/svg" xmlns:xlink="http://www.w3.org/1999/xlink" x="0px" y="0px"
	 viewBox="0 0 1367.2 768" style="enable-background:new 0 0 1367.2 768;" xml:space="preserve">
<style type="text/css">
	.st0{fill:#F2F2F2;}
	.st1{fill:none;stroke:#F2F2F2;stroke-width:0.6;stroke-miterlimit:10;}
</style>
<circle id="XMLID_66_" class="st0" cx="31.7" cy="60.8" r="4.5"/>
<circle id="XMLID_68_" class="st0" cx="1188.6" cy="96.5" r="4.5"/>
<circle id="XMLID_69_" class="st0" cx="757.9" cy="284.6" r="4.5"/>
<circle id="XMLID_70_" class="st0" cx="702.3" cy="105.5" r="4.5"/>
<circle id="XMLID_71_" class="st0" cx="129.6" cy="664.6" r="4.5"/>
<circle id="XMLID_72_" class="st0" cx="95.2" cy="409.4" r="4.5"/>
<circle id="XMLID_73_" class="st0" cx="325.9" cy="347.2" r="4.5"/>
<circle id="XMLID_74_" class="st0" cx="222.8" cy="191.7" r="4.5"/>
<circle id="XMLID_75_" class="st0" cx="952.6" cy="571.3" r="4.5"/>
<circle id="XMLID_76_" class="st0" cx="635.2" cy="660.1" r="4.5"/>
<circle id="XMLID_83_" class="st0" cx="457.2" cy="742.8" r="4.5"/>
<circle id="XMLID_84_" class="st0" cx="213.8" cy="530.1" r="4.5"/>
<circle id="XMLID_85_" class="st0" cx="1323.6" cy="496.5" r="4.5"/>
<circle id="XMLID_77_" class="st0" cx="505.9" cy="575.9" r="4.5"/>
<circle id="XMLID_78_" class="st0" cx="726.8" cy="501" r="4.5"/>
<circle id="XMLID_79_" class="st0" cx="1142.4" cy="384" r="4.5"/>
<circle id="XMLID_80_" class="st0" cx="1245.5" cy="710" r="4.5"/>
<circle id="XMLID_81_" class="st0" cx="1006.6" cy="275.6" r="4.5"/>
<circle id="XMLID_82_" class="st0" cx="515" cy="227.4" r="4.5"/>
<line id="XMLID_67_" class="st1" x1="31.7" y1="60.8" x2="222.8" y2="191.7"/>
<line id="XMLID_86_" class="st1" x1="222.8" y1="191.7" x2="702.3" y2="105.5"/>
<line id="XMLID_87_" class="st1" x1="702.3" y1="105.5" x2="757.9" y2="284.6"/>
<line id="XMLID_89_" class="st1" x1="129.6" y1="664.6" x2="1245.5" y2="710"/>
<line id="XMLID_90_" class="st1" x1="1245.5" y1="710" x2="515" y2="227.4"/>
<line id="XMLID_91_" class="st1" x1="515" y1="227.4" x2="95.2" y2="409.4"/>
<line id="XMLID_92_" class="st1" x1="95.2" y1="409.4" x2="213.8" y2="530.1"/>
<line id="XMLID_93_" class="st1" x1="213.8" y1="530.1" x2="1188.6" y2="96.5"/>
<line id="XMLID_94_" class="st1" x1="1188.6" y1="96.5" x2="1142.4" y2="384"/>
<line id="XMLID_95_" class="st1" x1="1142.4" y1="384" x2="1323.6" y2="496.5"/>
<line id="XMLID_96_" class="st1" x1="1323.6" y1="496.5" x2="726.8" y2="501"/>
<line id="XMLID_97_" class="st1" x1="31.7" y1="60.8" x2="213.8" y2="530.1"/>
<line id="XMLID_98_" class="st1" x1="129.6" y1="660.1" x2="325.9" y2="347.2"/>
<line id="XMLID_99_" class="st1" x1="325.9" y1="347.2" x2="1006.6" y2="275.6"/>
<line id="XMLID_100_" class="st1" x1="1006.6" y1="275.6" x2="952.6" y2="571.3"/>
<line id="XMLID_101_" class="st1" x1="952.6" y1="571.3" x2="505.9" y2="575.9"/>
<line id="XMLID_102_" class="st1" x1="505.9" y1="575.9" x2="635.2" y2="660.1"/>
<line id="XMLID_103_" class="st1" x1="635.2" y1="660.1" x2="722.3" y2="501"/>
<line id="XMLID_104_" class="st1" x1="722.3" y1="501" x2="321.4" y2="347.2"/>
<line id="XMLID_105_" class="st1" x1="457.2" y1="742.8" x2="757.9" y2="284.6"/>
<line id="XMLID_106_" class="st1" x1="457.2" y1="742.8" x2="325.9" y2="347.2"/>
<line id="XMLID_107_" class="st1" x1="702.3" y1="105.5" x2="1184.1" y2="96.5"/>
<line id="XMLID_108_" class="st1" x1="1245.5" y1="710" x2="1323.6" y2="501"/>
</svg>
