<?xml version="1.0" encoding="utf-8"?>
<!-- Generator: Adobe Illustrator 19.0.0, SVG Export Plug-In . SVG Version: 6.00 Build 0)  -->
<svg version="1.1" id="Capa_1" xmlns="http://www.w3.org/2000/svg" xmlns:xlink="http://www.w3.org/1999/xlink" x="0px" y="0px"
	 viewBox="0 0 50 50" style="enable-background:new 0 0 50 50;" xml:space="preserve">
<style type="text/css">
	.st0{display:none;fill:#03B8FF;}
	.st1{fill:#FFFFFF;}
</style>
<rect id="XMLID_4_" class="st0" width="50" height="50"/>
<path id="XMLID_8_" class="st1" d="M25,2.7C12.7,2.7,2.7,12.7,2.7,25s10,22.3,22.3,22.3s22.3-10,22.3-22.3S37.3,2.7,25,2.7z M25,10
	c4.1,0,7.5,3.4,7.5,7.5c0,4.1-3.4,7.5-7.5,7.5s-7.5-3.4-7.5-7.5C17.5,13.4,20.9,10,25,10z M25,44.8c-9,0-16.3-6.7-16.3-9.9
	C8.7,31.6,16,29,25,29s16.3,2.6,16.3,5.9C41.3,38.1,34,44.8,25,44.8z"/>
</svg>
