<?xml version="1.0" encoding="utf-8"?>
<!-- Generator: Adobe Illustrator 16.0.0, SVG Export Plug-In . SVG Version: 6.00 Build 0)  -->
<!DOCTYPE svg PUBLIC "-//W3C//DTD SVG 1.1//EN" "http://www.w3.org/Graphics/SVG/1.1/DTD/svg11.dtd">
<svg version="1.1" id="Layer_1" xmlns="http://www.w3.org/2000/svg" xmlns:xlink="http://www.w3.org/1999/xlink" x="0px" y="0px"
	 width="511px" height="100px" viewBox="0 0 511 100" enable-background="new 0 0 511 100" xml:space="preserve">
<g>
	<path fill="#FFFFFF" d="M152.66,13.381v20.773c-1.347-0.533-2.387-0.801-3.121-0.801c-1.408,0-2.616,0.605-3.626,1.815
		c-1.01,1.211-1.515,2.671-1.515,4.379c0,1.461,0.551,3.312,1.652,5.555l1.423,2.884c2.57,5.197,3.855,10.217,3.855,15.059
		c0,7.084-2.165,13.084-6.495,17.996c-4.33,4.914-9.615,7.369-15.857,7.369c-2.999,0-5.967-0.801-8.904-2.402V64.914
		c1.774,1.318,3.351,1.977,4.728,1.977c1.621,0,2.976-0.543,4.062-1.629s1.63-2.447,1.63-4.086c0-1.068-0.872-3.398-2.616-6.996
		c-2.785-5.694-4.177-11.392-4.177-17.088c0-6.87,2.104-12.79,6.311-17.756c4.207-4.967,9.233-7.45,15.078-7.45
		C147.657,11.886,150.182,12.385,152.66,13.381z"/>
	<path fill="#FFFFFF" d="M187.208,33.354v53.242h-17.166V33.354H187.208z M178.671,9.59c2.325,0,4.337,0.953,6.035,2.857
		s2.548,4.156,2.548,6.755c0,2.777-0.804,5.056-2.41,6.836s-3.664,2.67-6.173,2.67c-2.51,0-4.567-0.89-6.174-2.67
		s-2.409-4.059-2.409-6.836c0-2.599,0.849-4.851,2.547-6.755S176.345,9.59,178.671,9.59z"/>
	<path fill="#FFFFFF" d="M234.607,62.084l17.028-0.748c-0.49,7.689-2.953,14.01-7.39,18.957c-4.438,4.949-9.838,7.424-16.202,7.424
		c-6.732,0-12.416-2.725-17.052-8.17c-4.636-5.447-6.953-12.123-6.953-20.027c0-7.51,2.341-13.937,7.022-19.277
		c4.682-5.34,10.296-8.01,16.845-8.01c5.722,0,10.771,2.101,15.146,6.301c4.375,4.202,7.099,9.56,8.17,16.074l-17.396,0.748
		c-1.5-2.279-3.396-3.418-5.691-3.418c-1.959,0-3.565,0.748-4.819,2.242c-1.255,1.496-1.882,3.383-1.882,5.66
		c0,2.316,0.665,4.256,1.996,5.822s2.991,2.35,4.98,2.35C231.317,68.012,233.383,66.035,234.607,62.084z"/>
	<path fill="#FFFFFF" d="M290.039,32.232c6.486,0,12.048,2.715,16.684,8.144c4.636,5.43,6.954,11.935,6.954,19.519
		c0,7.689-2.349,14.24-7.046,19.652s-10.365,8.117-17.005,8.117c-6.641,0-12.316-2.715-17.028-8.145
		c-4.713-5.43-7.068-11.971-7.068-19.625c0-7.797,2.355-14.355,7.068-19.679C277.31,34.894,283.123,32.232,290.039,32.232z
		 M289.58,51.938c-1.836,0-3.396,0.773-4.682,2.322s-1.928,3.445-1.928,5.688c0,2.209,0.649,4.096,1.95,5.66
		c1.301,1.568,2.854,2.35,4.659,2.35c1.836,0,3.403-0.781,4.704-2.35c1.301-1.564,1.951-3.451,1.951-5.66
		c0-2.242-0.643-4.139-1.928-5.688S291.446,51.938,289.58,51.938z"/>
	<path fill="#FFFFFF" d="M346.205,13.702V57.33c0,7.086,2.188,10.627,6.562,10.627c1.867,0,3.449-0.738,4.75-2.215
		s1.951-3.266,1.951-5.367c0-2.172-0.611-3.996-1.836-5.475c-1.225-1.477-2.723-2.215-4.498-2.215c-1.254,0-2.693,0.641-4.314,1.922
		V32.606c2.02-0.214,3.549-0.321,4.59-0.321c6.457,0,11.986,2.706,16.592,8.117c4.605,5.412,6.908,11.928,6.908,19.545
		c0,7.797-2.34,14.365-7.021,19.705s-10.436,8.012-17.258,8.012c-3.428,0-6.771-0.873-10.029-2.617
		c-3.26-1.744-5.943-4.094-8.055-7.049c-3.672-5.127-5.508-11.766-5.508-19.92V13.702H346.205z"/>
	<path fill="#FFFFFF" d="M419.078,66.623v20.666c-1.408,0.285-2.693,0.428-3.855,0.428c-6.885,0-12.623-2.635-17.213-7.904
		c-4.59-5.268-6.885-11.873-6.885-19.811c0-7.727,2.318-14.276,6.953-19.652c4.637-5.376,10.273-8.064,16.914-8.064
		c7.404,0,13.242,2.52,17.51,7.557c4.27,5.039,6.404,11.918,6.404,20.641v26.113H421.74V61.924c0-2.812-0.59-5.055-1.768-6.729
		s-2.762-2.51-4.75-2.51c-1.807,0-3.367,0.766-4.682,2.295c-1.316,1.531-1.975,3.348-1.975,5.447c0,2.209,0.598,4.023,1.791,5.447
		s2.707,2.137,4.543,2.137C416.4,68.012,417.793,67.549,419.078,66.623z"/>
	<path fill="#FFFFFF" d="M498.928,86.596h-17.166V56.529c0-3.061-1.088-4.592-3.26-4.592c-2.143,0-3.213,1.531-3.213,4.592v30.066
		h-17.166V56.904c0-6.943,1.975-12.79,5.922-17.543s8.781-7.129,14.504-7.129c6.547,0,11.795,2.759,15.742,8.277
		c3.09,4.308,4.637,10.307,4.637,17.996V86.596z"/>
</g>
<g>
	<path fill="#FFFFFF" d="M91.568,17.612l-15.894-5.447v14.611c-1.944-0.744-3.445-1.116-4.504-1.116
		c-2.032,0-3.776,0.845-5.234,2.528c-1.457,1.686-2.186,3.718-2.186,6.099c0,2.033,0.795,4.611,2.385,7.733l2.054,4.016
		c3.71,7.239,5.566,14.229,5.566,20.97c0,9.703-3.03,17.939-9.075,24.717l20.285-11.146c2.373-1.322,4.598-4.609,4.912-7.309
		l5.793-49.134C95.993,21.43,94.145,18.494,91.568,17.612z"/>
	<path fill="#FFFFFF" d="M28.635,69.609c2.562,1.834,4.836,2.752,6.824,2.752c2.34,0,4.295-0.756,5.864-2.268
		c1.566-1.512,2.351-3.408,2.351-5.689c0-1.488-1.258-4.734-3.775-9.742c-4.02-7.931-6.03-15.863-6.03-23.796
		c0-9.505,3-17.7,8.995-24.588l-32.093,11.75c-2.561,0.936-4.413,3.917-4.115,6.625l5.367,49.122
		c0.293,2.707,2.486,5.996,4.875,7.311l11.738,6.471V69.609z"/>
</g>
</svg>
