<?xml version="1.0" encoding="utf-8"?>
<!-- Generator: Adobe Illustrator 19.0.0, SVG Export Plug-In . SVG Version: 6.00 Build 0)  -->
<svg version="1.1" id="Capa_1" xmlns="http://www.w3.org/2000/svg" xmlns:xlink="http://www.w3.org/1999/xlink" x="0px" y="0px"
	 viewBox="0 0 100 72.1" style="enable-background:new 0 0 100 72.1;" xml:space="preserve">
<style type="text/css">
	.st0{fill:#78F9F5;}
	.st1{fill:#62E8E2;}
	.st2{fill:#41CEC3;}
	.st3{fill:#D1D1D1;}
	.st4{fill:#F9EAAF;}
	.st5{fill:#4B4C4C;}
	.st6{fill:#7D9EAA;}
	.st7{fill:#72919B;}
	.st8{fill:#607D8B;}
</style>
<g id="XMLID_14_">
	
		<rect id="XMLID_20_" x="44.7" y="5.6" transform="matrix(0.7071 -0.7071 0.7071 0.7071 -13.7388 44.4438)" class="st0" width="4.2" height="66.3"/>
	
		<rect id="XMLID_31_" x="16.6" y="33.7" transform="matrix(-0.7071 -0.7071 0.7071 -0.7071 59.6372 96.333)" class="st1" width="66.3" height="4.2"/>
	
		<rect id="XMLID_32_" x="50.6" y="-0.3" transform="matrix(-0.7071 0.7071 -0.7071 -0.7071 113.2784 18.7273)" class="st2" width="4.2" height="66.3"/>
	<polygon id="XMLID_33_" class="st3" points="77.7,54.8 74.7,57.8 71.7,60.8 68.7,63.8 72.1,67.1 81,58.1 	"/>
	<polygon id="XMLID_34_" class="st4" points="27.8,10.9 30.8,7.9 21.9,4.9 18.9,7.9 21.8,16.9 24.8,13.9 	"/>
	<polygon id="XMLID_35_" class="st5" points="21.9,4.9 17.4,3.4 18.9,7.9 18.9,7.9 21.9,4.9 	"/>
	<path id="XMLID_36_" class="st5" d="M81.8,58.9L81,58.1l-9,9l0.8,0.8c1.1,1.1,2.8,1.1,3.8,0l5.2-5.2C82.9,61.7,82.9,59.9,81.8,58.9
		z"/>
</g>
<rect id="XMLID_11_" x="50.6" y="-0.3" transform="matrix(-0.7071 0.7071 -0.7071 -0.7071 113.2784 18.7273)" class="st6" width="4.2" height="66.3"/>
<rect id="XMLID_13_" x="47.7" y="2.7" transform="matrix(0.7071 -0.7071 0.7071 0.7071 -10.748 45.6826)" class="st7" width="4.2" height="66.3"/>
<rect id="XMLID_15_" x="44.7" y="5.6" transform="matrix(-0.7071 0.7071 -0.7071 -0.7071 107.2967 33.1685)" class="st8" width="4.2" height="66.3"/>
</svg>
