<?xml version="1.0" encoding="utf-8"?>
<!-- Generator: Adobe Illustrator 19.0.0, SVG Export Plug-In . SVG Version: 6.00 Build 0)  -->
<svg version="1.1" xmlns="http://www.w3.org/2000/svg" xmlns:xlink="http://www.w3.org/1999/xlink" x="0px" y="0px"
	 viewBox="0 0 33.3 19" style="enable-background:new 0 0 33.3 19;" xml:space="preserve">
<style type="text/css">
	.st0{fill:none;}
	.st1{fill:#383838;}
	.st2{fill:#FFFFFF;}
	.st3{fill:#39B54A;}
	.st4{fill:#F4F4F4;}
	.st5{fill:#D3D3D3;}
	.st6{fill:#F9F9F9;stroke:#636868;stroke-width:0.1;stroke-miterlimit:10;}
	.st7{fill:#D1D1D1;}
	.st8{fill:none;stroke:#666666;stroke-width:0.1;stroke-linecap:round;stroke-miterlimit:10;}
	.st9{fill:#E86860;}
	.st10{fill:none;stroke:#607D8B;stroke-width:0.2;stroke-linecap:round;stroke-miterlimit:10;}
	.st11{fill:#EFEFEF;}
	.st12{fill:none;stroke:#607D8B;stroke-width:0.1;stroke-linecap:round;stroke-miterlimit:10;}
	.st13{fill:none;stroke:#607D8B;stroke-width:0.3;stroke-linecap:round;stroke-miterlimit:10;}
	.st14{fill:#EFEFEF;stroke:#607D8B;stroke-width:0.1;stroke-miterlimit:10;}
	.st15{fill:#607D8B;}
	.st16{font-family:'MyriadPro-Bold';}
	.st17{font-size:4.1245px;}
</style>
<g id="Capa_1">
	<path id="XMLID_3_" class="st0" d="M5.4,47.9C5.4,48,5.4,48,5.4,47.9"/>
	<path id="XMLID_1_" class="st1" d="M28.6,16.2H3.4V3c0-0.8,0.7-1.5,1.5-1.5h22.2c0.8,0,1.5,0.7,1.5,1.5V16.2z"/>
	<rect id="XMLID_10_" x="4.5" y="2.5" class="st2" width="23" height="13.7"/>
	<path id="XMLID_12_" class="st3" d="M6.4,0"/>
	<path id="XMLID_9_" class="st3" d="M4.4-1.3"/>
	<polygon id="XMLID_2_" class="st4" points="31,16.9 1,16.9 1,16.2 31.1,16.2 	"/>
	<path id="XMLID_4_" class="st5" d="M27.1,17.9H4.9c-0.6,0-1.2-0.1-1.8-0.3L1,16.9H31l-2.1,0.7C28.3,17.8,27.7,17.9,27.1,17.9z"/>
	<circle id="XMLID_6_" class="st6" cx="15.9" cy="1.9" r="0.2"/>
	<path id="XMLID_11_" class="st7" d="M13.1,16.4h5.8c0.1,0,0.2-0.1,0.2-0.2h-6.1C12.9,16.3,13,16.4,13.1,16.4z"/>
	<line id="XMLID_5_" class="st8" x1="27.1" y1="16.6" x2="28.2" y2="16.6"/>
	<rect id="XMLID_15_" x="6.4" y="9.6" class="st2" width="4.2" height="0.3"/>
	<rect id="XMLID_18_" x="7.2" y="10.7" class="st2" width="4.6" height="0.3"/>
	<rect id="XMLID_24_" x="7.2" y="11.6" class="st2" width="2" height="0.3"/>
	<rect id="XMLID_7_" x="4.5" y="2.5" class="st9" width="23" height="1.2"/>
	<rect id="XMLID_8_" x="4.5" y="3.7" class="st4" width="4.4" height="12.4"/>
	<line id="XMLID_38_" class="st10" x1="17.4" y1="9.3" x2="23" y2="9.3"/>
	<line id="XMLID_37_" class="st10" x1="21.5" y1="7.8" x2="23.1" y2="9.3"/>
	<line id="XMLID_36_" class="st10" x1="23.1" y1="9.3" x2="21.5" y2="10.9"/>
	<rect id="XMLID_35_" x="10.6" y="5.9" class="st11" width="6.2" height="6.8"/>
	<line id="XMLID_34_" class="st12" x1="11" y1="6.6" x2="13.7" y2="6.6"/>
	<line id="XMLID_33_" class="st12" x1="11" y1="6.9" x2="14" y2="6.9"/>
	<line id="XMLID_32_" class="st12" x1="11" y1="7.2" x2="13.1" y2="7.2"/>
	<line id="XMLID_82_" class="st12" x1="11" y1="7.5" x2="13.3" y2="7.5"/>
	<line id="XMLID_83_" class="st12" x1="11" y1="7.9" x2="13.7" y2="7.9"/>
	<line id="XMLID_84_" class="st12" x1="11" y1="8.2" x2="12.4" y2="8.2"/>
	<path id="XMLID_81_" class="st13" d="M13.9,7.5"/>
	<path id="XMLID_80_" class="st13" d="M11.2,7.5"/>
	<line id="XMLID_31_" class="st12" x1="11" y1="8.5" x2="13.1" y2="8.5"/>
	<line id="XMLID_30_" class="st12" x1="11" y1="8.9" x2="14" y2="8.9"/>
	<path id="XMLID_29_" class="st14" d="M31.2,11.7h-2.9V6.6h2.9c0.3,0,0.5,0.2,0.5,0.5v4.1C31.7,11.5,31.5,11.7,31.2,11.7z"/>
	<polygon id="XMLID_17_" class="st11" points="28.6,12.8 23.8,11.8 23.8,6.6 28.6,5.5 	"/>
	<rect id="XMLID_19_" x="30.3" y="7" class="st15" width="1.1" height="0.5"/>
	<rect id="XMLID_22_" x="30.3" y="7.9" class="st15" width="1.1" height="0.5"/>
	<rect id="XMLID_20_" x="28.6" y="7.9" class="st15" width="1.1" height="0.5"/>
	<rect id="XMLID_16_" x="30.3" y="8.9" class="st15" width="1.1" height="0.5"/>
	<rect id="XMLID_23_" x="28.6" y="8.9" class="st15" width="1.1" height="0.5"/>
	<rect id="XMLID_26_" x="30.3" y="9.9" class="st15" width="1.1" height="0.5"/>
	<rect id="XMLID_25_" x="28.6" y="9.9" class="st15" width="1.1" height="0.5"/>
	<rect id="XMLID_28_" x="30.3" y="10.9" class="st15" width="1.1" height="0.5"/>
	<rect id="XMLID_27_" x="28.6" y="10.9" class="st15" width="1.1" height="0.5"/>
	<text id="XMLID_14_" transform="matrix(0.9243 0 0 1 24.948 10.4316)" class="st15 st16 st17">X</text>
	<rect id="XMLID_13_" x="10.6" y="5.5" class="st15" width="6.3" height="0.6"/>
	<rect id="XMLID_21_" x="28.6" y="7" class="st15" width="1.1" height="0.5"/>
	<line id="XMLID_52_" class="st12" x1="5.1" y1="4.7" x2="8.2" y2="4.7"/>
	<line id="XMLID_54_" class="st12" x1="5.1" y1="5.5" x2="8.2" y2="5.5"/>
	<line id="XMLID_55_" class="st12" x1="5.1" y1="6" x2="8.2" y2="6"/>
	<line id="XMLID_56_" class="st12" x1="5.1" y1="6.6" x2="8.2" y2="6.6"/>
	<line id="XMLID_57_" class="st12" x1="5.1" y1="7.3" x2="8.2" y2="7.3"/>
</g>
<g id="Capa_2">
</g>
</svg>
