<?xml version="1.0" encoding="utf-8"?>
<!-- Generator: Adobe Illustrator 19.0.0, SVG Export Plug-In . SVG Version: 6.00 Build 0)  -->
<svg version="1.1" id="Capa_1" xmlns="http://www.w3.org/2000/svg" xmlns:xlink="http://www.w3.org/1999/xlink" x="0px" y="0px"
	 viewBox="0 0 62.2 37.8" style="enable-background:new 0 0 62.2 37.8;" xml:space="preserve">
<style type="text/css">
	.st0{display:none;fill:#E86860;}
	.st1{fill:none;stroke:#607D8B;stroke-width:0.3;stroke-linecap:round;stroke-miterlimit:10;}
	.st2{fill:#FFFFFF;}
	.st3{fill:#E86860;}
	.st4{font-family:'MyriadPro-Bold';}
	.st5{font-size:15.0376px;}
	.st6{font-size:7.0583px;}
</style>
<rect id="XMLID_10_" class="st0" width="62.2" height="37.8"/>
<path id="XMLID_81_" class="st1" d="M-10.1,13.2"/>
<path id="XMLID_80_" class="st1" d="M-20.4,13.2"/>
<path id="XMLID_7_" class="st2" d="M55.6,29.2H44.6V9.8h11.1c1.1,0,2,0.9,2,2v15.6C57.6,28.3,56.7,29.2,55.6,29.2z"/>
<polygon id="XMLID_11_" class="st2" points="45.8,33.4 27.5,29.3 27.5,9.7 45.8,5.5 "/>
<rect id="XMLID_19_" x="52.3" y="11.2" class="st3" width="4.2" height="2"/>
<rect id="XMLID_21_" x="45.8" y="11.2" class="st3" width="4.2" height="2"/>
<rect id="XMLID_22_" x="52.2" y="14.7" class="st3" width="4.2" height="2"/>
<rect id="XMLID_20_" x="45.7" y="14.7" class="st3" width="4.2" height="2"/>
<rect id="XMLID_24_" x="52.2" y="18.5" class="st3" width="4.2" height="2"/>
<rect id="XMLID_23_" x="45.7" y="18.5" class="st3" width="4.2" height="2"/>
<rect id="XMLID_26_" x="52.2" y="22.2" class="st3" width="4.2" height="2"/>
<rect id="XMLID_25_" x="45.7" y="22.2" class="st3" width="4.2" height="2"/>
<rect id="XMLID_28_" x="52.2" y="25.9" class="st3" width="4.2" height="2"/>
<rect id="XMLID_27_" x="45.7" y="25.9" class="st3" width="4.2" height="2"/>
<text id="XMLID_18_" transform="matrix(0.9629 0 0 1.0418 31.9767 24.2565)" class="st3 st4 st5">X</text>
<text id="XMLID_1_" transform="matrix(1 0 0 1 3.1255 22.2498)" class="st2 st4 st6">toExcel</text>
</svg>
