<?xml version="1.0" encoding="utf-8"?>
<!-- Generator: Adobe Illustrator 19.0.0, SVG Export Plug-In . SVG Version: 6.00 Build 0)  -->
<svg version="1.1" id="Capa_1" xmlns="http://www.w3.org/2000/svg" xmlns:xlink="http://www.w3.org/1999/xlink" x="0px" y="0px"
	 viewBox="0 0 100 100" style="enable-background:new 0 0 100 100;" xml:space="preserve">
<style type="text/css">
	.st0{fill:#607D8B;}
</style>
<path id="XMLID_6_" class="st0" d="M96.1,50c0-1.6-0.3-3.2-0.5-4.8l-14.4-3.6L92,31.2c-1.3-2.9-2.9-5.6-4.8-8.2l-14.4,4.1l4.1-14.4
	c-2.6-1.9-5.3-3.5-8.2-4.8L58.4,18.8L54.8,4.4c-1.6-0.2-3.1-0.5-4.8-0.5s-3.2,0.3-4.8,0.5l-3.6,14.4L31.2,8
	c-2.9,1.3-5.6,2.9-8.2,4.8l4.1,14.4l-14.4-4.1c-1.9,2.6-3.5,5.3-4.8,8.2l10.8,10.4L4.4,45.2c-0.2,1.6-0.5,3.1-0.5,4.8
	s0.3,3.2,0.5,4.8l14.4,3.6L8,68.8c1.3,2.9,2.9,5.6,4.8,8.2l14.4-4.1l-4.1,14.4c2.6,1.9,5.3,3.5,8.2,4.8l10.4-10.8l3.6,14.4
	c1.6,0.2,3.1,0.5,4.8,0.5s3.2-0.3,4.8-0.5l3.6-14.4L68.8,92c2.9-1.3,5.6-2.9,8.2-4.8l-4.1-14.4l14.4,4.1c1.9-2.6,3.5-5.3,4.8-8.2
	L81.2,58.4l14.4-3.6C95.7,53.2,96.1,51.6,96.1,50z M50,70c-11,0-20-9-20-20c0-11,9-20,20-20s20,9,20,20C70,61,61,70,50,70z"/>
</svg>
